<svg xmlns="http://www.w3.org/2000/svg" width="24" height="24" viewBox="0 0 24 24" fill="none">
  <path fill="#9ea7b3" d="M12 .5a11.5 11.5 0 0 0-3.64 22.41c.58.1.8-.25.8-.56v-2.02c-3.26.71-3.95-1.57-3.95-1.57-.53-1.35-1.29-1.7-1.29-1.7-1.06-.73.08-.72.08-.72 1.17.08 1.79 1.2 1.79 1.2 1.04 1.78 2.73 1.27 3.4.97.1-.76.41-1.27.75-1.56-2.6-.3-5.33-1.3-5.33-5.8 0-1.28.46-2.33 1.2-3.15-.12-.3-.52-1.52.11-3.17 0 0 .98-.31 3.2 1.2.93-.26 1.93-.4 2.92-.4.99 0 1.99.14 2.92.4 2.22-1.51 3.2-1.2 3.2-1.2.63 1.65.23 2.87.12 3.17.74.82 1.2 1.87 1.2 3.15 0 4.51-2.73 5.49-5.34 5.78.42.36.8 1.07.8 2.16v3.2c0 .32.21.67.81.56A11.5 11.5 0 0 0 12 .5Z"/>
</svg>